<?xml version="1.0" standalone="no"?>
<!DOCTYPE svg PUBLIC "-//W3C//DTD SVG 20010904//EN"
 "http://www.w3.org/TR/2001/REC-SVG-20010904/DTD/svg10.dtd">
<svg version="1.0" xmlns="http://www.w3.org/2000/svg"
 width="192.000000pt" height="192.000000pt" viewBox="0 0 192.000000 192.000000"
 preserveAspectRatio="xMidYMid meet">
<metadata>
Created by potrace 1.11, written by Peter Selinger 2001-2013
</metadata>
<g transform="translate(0.000000,192.000000) scale(0.100000,-0.100000)"
fill="#000000" stroke="none">
<path d="M475 1440 l-479 -480 482 -483 482 -482 482 482 482 483 -479 480
c-264 264 -482 480 -485 480 -3 0 -221 -216 -485 -480z m217 -42 l-4 -38 46 0
46 0 0 40 c0 38 2 40 30 40 28 0 30 -2 30 -40 l0 -40 40 0 40 0 0 40 c0 39 1
40 35 40 34 0 35 -1 35 -40 l0 -40 45 0 45 0 0 40 c0 38 2 40 30 40 28 0 30
-2 30 -40 l0 -40 45 0 45 0 0 40 c0 39 1 40 35 40 l35 0 0 -94 c0 -73 -3 -95
-14 -99 -8 -3 -79 -11 -158 -17 -136 -11 -363 -3 -457 16 l-31 7 0 94 0 94 28
-3 c25 -3 27 -6 24 -40z m308 -183 c102 0 205 3 230 7 l45 7 1 -147 c0 -165
17 -233 74 -304 29 -36 30 -40 30 -147 l0 -111 -119 0 -119 0 -3 118 c-4 109
-6 122 -31 160 -34 51 -65 72 -117 79 -53 7 -83 -1 -122 -34 -50 -43 -71 -101
-77 -220 l-5 -103 -113 0 -114 0 0 113 c1 109 1 113 31 152 47 62 71 153 72
275 0 58 -3 120 -7 138 l-8 33 84 -8 c45 -4 166 -8 268 -8z m30 -367 c48 -24
82 -74 93 -135 l7 -33 -160 0 c-175 0 -168 -3 -150 62 19 67 86 126 145 128
12 0 41 -10 65 -22z"/>
<path d="M884 1117 c-3 -8 -4 -36 -2 -63 l3 -49 75 0 75 0 0 60 0 60 -73 3
c-55 2 -74 0 -78 -11z"/>
<path d="M642 693 l3 -58 38 -3 37 -3 0 60 0 61 -40 0 -41 0 3 -57z"/>
<path d="M1220 690 l0 -60 35 0 35 0 0 60 0 60 -35 0 -35 0 0 -60z"/>
</g>
</svg>
