<svg version="1" xmlns="http://www.w3.org/2000/svg" width="682.667" height="682.667" viewBox="0 0 512.000000 512.000000"><path d="M127.3 127.9C57.3 198.1 0 255.7 0 256c0 .7 255.3 256 256 256 .7 0 256-255.3 256-256C512 254.9 256.5 0 255.5.2c-.5.1-58.3 57.5-128.2 127.7zm57.7 11.6l.5 11h22l.3-11.3.3-11.3 7.2.3 7.2.3.5 11 .5 11h21l.3-11.3.3-11.3 8.7.3 8.7.3.1 10.3c.1 5.7.6 10.8 1.1 11.3.5.5 5.9.8 12.4.7l11.4-.3.3-11.3.3-11.3 8.2.3 8.2.3.5 11 .5 11h22l.3-11.3.3-11.2H345v50.8l-2.4.6c-1.4.3-6.9 1.1-12.3 1.6-5.4.6-13.8 1.6-18.8 2.2-5.7.8-23.5 1.2-48.5 1.3-41.2 0-64-1.4-84-5.3l-8.5-1.7-.3-23.5c-.1-12.9 0-24.1.3-24.8.3-.9 2.3-1.2 7.2-1l6.8.3.5 11zm3.1 45.9c25.5 3.5 50.3 4.8 81.7 4.3 28.4-.4 59.1-2.6 66.8-4.6 5.2-1.4 5.6-.5 3.8 9.5-2.2 11.5-2.5 44.1-.5 56.9 2.1 14.2 6.8 30.9 11.1 39.6 4.8 9.7 7 13.1 12.7 19l4.3 4.5-.2 29-.3 28.9h-62l-.6-26.5c-.7-29.3-1.1-31.8-7.7-44.5-5-9.4-12.3-16.5-21.7-21-7.1-3.4-8.3-3.7-17-3.7-8.7-.1-10 .2-16.8 3.5-12.1 5.7-20.7 15.6-26.2 30-3 8.1-4.5 25.6-3.8 44.7.5 12.2.3 14.7-.9 15.8-1.2.9-8.6 1.2-31.4 1l-29.9-.3-.3-29.2-.2-29.1 4-4.2c18.9-19.7 28.1-59.5 23.9-103.8-.5-6.2-1.6-13.3-2.3-15.7-.8-2.4-1.1-4.6-.8-4.9.8-.9 2.8-.7 14.3.8zm84.2 98.6c13.2 4.9 24.2 20.3 26.7 37.3.6 4.3.9 8.2.5 8.5-.7.7-71.9 1-78.7.3-3.5-.3-3.8-.5-3.8-3.5.1-10.1 5.9-24.1 13.4-32.3 11.3-12.5 26.3-16.1 41.9-10.3z"/><path d="M237.3 210.1c-2.3.8-2.3 1.2-2.3 16.7 0 10.9.4 16.2 1.2 17 1.7 1.7 37.9 1.7 39.6 0 1.5-1.5 1.7-30.5.2-32.8-.7-1.1-4.3-1.5-18.7-1.6-9.8-.1-18.8.2-20 .7zM172.2 311.8c-.9.7-1.2 4.5-1 15.8l.3 14.9 9.9.3c7.3.2 10.2-.1 10.8-1 1.3-2.1 1-28.2-.4-29.6-1.4-1.4-17.5-1.7-19.6-.4zM333 312.9l-8.5.6-.3 14.3c-.2 9.9.1 14.8.9 15.8 1.7 2.1 17.2 2 19.3-.1 2.2-2.2 1.8-29.1-.4-30.5-.8-.5-1.7-.9-2-.8-.3.1-4.3.4-9 .7z"/></svg>